<svg xmlns="http://www.w3.org/2000/svg" viewBox="0 0 1920 1920" role="img" aria-label="ZorvEx Studio Logo">
  <title>ZorvEx Studio</title>
  <!-- Main geometric Z mark — rose-gold #C7915B -->
  <g>
    <path fill="#C7915B" d="M1822.89,1436.44c0,158.87,0,313.69,0,466.36c-2.63,2.82-3.3,3.66-4.1,4.35
      c-0.78,0.68-1.64,1.65-2.54,1.73c-8.42,0.81-16.85,2.06-25.27,2.06c-570.99,0.1-1141.97,0.09-1718.91,0.09
      c138.03-240.82,280.9-473.83,419.54-709.31c138.33-234.97,280.97-467.41,420.18-709.76
      c-43.91-4.38-81.67-2.05-119.2-2.66c-38.28-0.63-76.57-0.17-114.86-0.17c-38.29,0-76.57,0.02-114.86,0.03
      c-38.29,0.01-76.57,0.04-114.86,0.02c-38.29-0.02-76.57-0.09-114.86-0.11c-38.29-0.02-76.57-0.02-114.86-0.02
      c-38.13,0-76.25,0-116.9,0c0-158.34,0-314.01,0-469.38c23.76-7.31,1706.85-9.61,1760.59-2.06
      c-140.74,236.66-281.22,471.42-420.24,707.04c-138.4,234.57-279.2,467.75-419.82,710.27
      c139.03,3.12,270.28,0.98,401.47,1.42C1555.17,1436.79,1686.95,1436.44,1822.89,1436.44z
      M1691.41,114.68c-8.08-1.95-11.07-3.31-14.06-3.31c-133.99-0.04-267.97,0.41-401.96-0.31
      c-19.04-0.1-28.52,7.98-37.36,23.18c-63.49,109.21-127.08,218.37-192.1,326.68
      c-12.47,20.77-14.38,36.72-2.01,58.24c61.91,107.75,122.3,216.37,183.51,324.53
      c3.82,6.75,10.04,12.16,18.57,22.25C1395.33,614.06,1542.37,366.06,1691.41,114.68z
      M246.65,1812.52c7.17,1.3,14.15,3.63,21.13,3.67c129.69,0.68,259.39,0.92,389.08,1.73
      c16.89,0.11,27.5-6.28,35.6-21.16c14.71-27.02,31.03-53.17,46.69-79.66
      c48.64-82.27,97-164.7,146.16-246.66c10.96-18.27,13.77-34.58,0.7-52.87
      c-7.36-10.29-12.34-22.27-18.56-33.4c-55.46-99.12-110.91-198.25-166.59-297.25
      c-3.48-6.18-8.88-11.28-13.46-16.99C667.68,1088.44,254.63,1784.24,246.65,1812.52z
      M795.15,1814.15c20.16,0.98,32.58,2.04,45,2.11c74.39,0.45,148.78,0.85,223.17,0.93
      c208.3,0.23,416.61,0.36,624.91,0.36c39.1,0,41.54-2.47,41.57-41.57
      c0.05-70.12-0.13-140.25-0.61-210.37c-0.22-31.87-2.25-33.84-34.95-34.2
      c-37.19-0.41-74.39-0.03-111.59-0.01c-196.61,0.12-393.22,0.54-589.83-0.01
      c-23.79-0.07-38.61,6.74-50.74,28.64c-30.86,55.67-64.96,109.53-97.19,164.46
      C828.86,1751.8,814.11,1779.86,795.15,1814.15z
      M198.19,390.87c14.83,1.26,26.27,3.06,37.71,3.07c235.92,0.11,471.84-0.22,707.75,0.36
      c21.85,0.05,35.15-7.31,45.95-26.13c44.39-77.33,90.03-153.96,134.88-231.03
      c3.84-6.59,5.33-14.55,9.32-25.88c-314.33,1.07-623.94-0.83-935.62,0.97
      C198.19,206.79,198.19,296.65,198.19,390.87z
      M958.23,1348.71c8.66-12.45,14.92-20.44,20.09-29.08c11.99-20.05,23.24-40.53,35.16-60.63
      c53.07-89.51,106.08-179.05,159.61-268.28c8.33-13.89,11.37-25.59,2.59-41.11
      c-64.82-114.58-128.82-229.63-193.29-344.42c-2.79-4.96-7.57-8.81-12.92-14.87
      c-5.24,7.5-9.11,12.32-12.23,17.59C890.7,720.24,824.79,832.94,757.24,944.66
      c-11.08,18.32-10.4,31.26-0.38,49.07c60.92,108.25,120.65,217.17,181.01,325.74
      C942.77,1328.31,949.42,1336.17,958.23,1348.71z"/>
  </g>
</svg>
